<svg width="107" height="114" viewBox="0 0 107 114" fill="none" xmlns="http://www.w3.org/2000/svg"><path d="M82.1667 87.2941L80.399 86.0088C81.3922 84.6814 82.3749 83.3352 83.2857 81.9055L85.0888 83.1213C84.2452 84.5379 83.1682 85.9372 82.1667 87.2941ZM87.8824 78.8968L85.9872 77.7826C86.8745 76.267 87.6402 74.8446 88.2904 73.4377L90.2624 74.3352C89.5487 75.8957 88.7544 77.4183 87.8824 78.8968ZM92.0967 69.5107L90.0017 68.8806C90.1615 68.3694 90.3 67.8205 90.4303 67.301C90.6749 66.2724 90.8517 65.229 90.9596 64.1777L93.1306 64.3684C93.0162 65.5176 92.8279 66.6584 92.5668 67.7838C92.5143 68.3091 92.273 68.9405 92.0967 69.5107ZM93.0702 59.0489L90.8905 59.2844C90.7274 57.6994 90.3828 56.1387 89.8635 54.6329L91.9423 53.9089C92.5269 55.6047 92.923 57.3599 93.1232 59.143L93.0702 59.0489ZM87.7723 50.4317C86.8912 49.147 85.802 48.0179 84.5492 47.0907L85.8413 45.3225C87.2848 46.3941 88.5395 47.6979 89.5544 49.1808L87.7723 50.4317ZM80.4143 44.9569C78.9094 44.4685 77.348 44.1731 75.7675 44.0778L75.916 41.9123C77.684 41.9977 79.4313 42.3232 81.11 42.88L80.4143 44.9569ZM70.9273 44.2246C69.4813 44.3941 67.8842 44.6487 66.0794 45.0201L65.5864 42.8192C67.263 42.4499 68.9587 42.174 70.6655 41.9926L70.9273 44.2246ZM61.1992 46.156L59.7141 46.5211L56.3025 47.3508L55.7718 45.1711L59.1538 44.3331L60.6579 43.9575L61.1992 46.156ZM51.3105 48.3762C49.6273 48.6544 47.9206 48.8467 46.2115 48.9908L46.0593 46.821C47.6905 46.6712 49.3489 46.4813 50.9649 46.2162L51.3105 48.3762ZM41.0918 49.171C39.3865 49.1891 37.6765 49.1106 36.0126 48.9814L36.18 46.8052C37.8145 46.9262 39.4655 46.9883 41.1036 46.9833L41.0918 49.171ZM30.9067 48.4351C29.2358 48.1611 27.5438 47.8495 25.8872 47.4684L26.3872 45.3529C27.9848 45.7176 29.6178 46.0129 31.2297 46.2705L30.9067 48.4351ZM20.9673 46.1482C19.3332 45.6304 17.7158 45.0537 16.155 44.4452L16.9497 42.4117C18.481 43.012 20.0773 43.5511 21.604 44.0549L20.9673 46.1482ZM11.4044 42.4101C9.88507 41.6543 8.38228 40.8396 6.92553 39.9742L8.03844 38.1085C9.44452 38.9281 10.9072 39.7157 12.3865 40.4445L11.4044 42.4101ZM2.63449 37.2095C1.8414 36.6397 1.04829 36.07 0.28237 35.4601L1.62512 33.7377C2.38045 34.3287 3.13347 34.8715 3.89708 35.4331L2.63449 37.2095Z" fill="#F1F1F1"/><path d="M92.7256 85.9111L92.2833 83.756L81.7341 85.9513L80.3514 75.2791L78.1741 75.5628L79.8609 88.5423L92.7256 85.9111Z" fill="#F1F1F1"/></svg>