<svg width="16" height="14" viewBox="0 0 16 14" fill="none" xmlns="http://www.w3.org/2000/svg">
<path d="M0.961689 5.73782C1.02716 5.72719 1.09341 5.72229 1.1597 5.72315L12.4474 5.72315L12.2013 5.60867C11.9607 5.4948 11.7418 5.33982 11.5544 5.15075L8.3891 1.9854C7.97221 1.58745 7.90217 0.947256 8.2231 0.468555C8.59663 -0.0415573 9.31294 -0.152316 9.82309 0.221208C9.8643 0.251402 9.90348 0.284315 9.94029 0.319732L15.6642 6.04369C16.1116 6.49052 16.112 7.21535 15.6651 7.66268C15.6649 7.66296 15.6645 7.66328 15.6642 7.66357L9.94029 13.3875C9.4926 13.834 8.76777 13.833 8.3213 13.3853C8.28617 13.35 8.25337 13.3125 8.2231 13.273C7.90217 12.7943 7.97221 12.1542 8.38909 11.7562L11.5487 8.58513C11.7167 8.41699 11.9098 8.276 12.1211 8.16728L12.4646 8.01273L1.2227 8.01273C0.637892 8.03445 0.124811 7.62593 0.0149463 7.05111C-0.0862604 6.42702 0.337599 5.83906 0.961689 5.73782Z" fill="#2194FF"/>
</svg>
