<svg width="22" height="19" viewBox="0 0 22 19" fill="none" xmlns="http://www.w3.org/2000/svg">
<path d="M7.93817 2.58693C8.29412 2.58693 8.5827 2.29836 8.5827 1.9424V0.644531C8.5827 0.288578 8.29412 0 7.93817 0C7.58222 0 7.29364 0.288578 7.29364 0.644531V1.9424C7.29364 2.29836 7.58222 2.58693 7.93817 2.58693Z" fill="#F1F1F1"/>
<path d="M2.09091 4.94773L0.966887 4.29877C0.658586 4.12071 0.26439 4.22642 0.0864564 4.53467C-0.0915203 4.84298 0.014097 5.23717 0.322355 5.41511L1.44638 6.06406C1.75395 6.2417 2.14844 6.13715 2.32681 5.82817C2.50478 5.51986 2.39916 5.12567 2.09091 4.94773Z" fill="#F1F1F1"/>
<path d="M1.44637 12.0745L0.32235 12.7234C-0.246556 13.0518 -0.0129782 13.9262 0.645217 13.9262C0.937276 13.9262 1.01105 13.7851 2.09086 13.1908C2.39912 13.0128 2.50473 12.6187 2.32676 12.3104C2.14882 12.0021 1.75471 11.8964 1.44637 12.0745Z" fill="#F1F1F1"/>
<path d="M14.4299 6.06405L15.5539 5.4151C15.8622 5.23712 15.9678 4.84297 15.7898 4.53467C15.6119 4.22642 15.2177 4.12071 14.9094 4.29877L13.7854 4.94773C13.4771 5.12571 13.3715 5.51986 13.5495 5.82816C13.7283 6.13796 14.1231 6.24126 14.4299 6.06405Z" fill="#F1F1F1"/>
<path d="M6.63545 10.702C7.11382 8.08027 9.2253 6.07205 11.8611 5.7262C10.9147 4.61648 9.50726 3.9115 7.93813 3.9115C5.09497 3.9115 2.78192 6.22542 2.78192 9.0696C2.78192 10.428 3.30979 11.6652 4.17084 12.5873C4.76695 11.7122 5.63702 11.0444 6.63545 10.702Z" fill="#F1F1F1"/>
<path d="M17.1405 9.98494C16.4106 8.18069 14.6417 6.96338 12.6587 6.96338C9.9997 6.96338 7.85337 9.10682 7.82527 11.7499C5.99458 11.9508 4.60205 13.5211 4.60205 15.3634C4.60205 17.368 6.23233 18.9989 8.23618 18.9989C18.3773 18.9883 17.8224 19.0248 17.999 18.97C20.2518 18.7159 22 16.8045 22 14.4856C22 11.8375 19.7381 9.78141 17.1405 9.98494Z" fill="#F1F1F1"/>
</svg>
