<svg width="54" height="74" viewBox="0 0 54 74" fill="none" xmlns="http://www.w3.org/2000/svg">
<path d="M27 0C41.3522 0 53.0156 11.6637 53.0156 26.0156C53.0156 30.8719 51.6712 35.5982 49.1131 39.674L28.7636 72.976C28.4164 73.5397 27.8961 73.8867 27.2889 73.9734C26.4654 74.1033 25.5544 73.7566 25.0776 72.9328L4.66978 39.327C2.24194 35.338 0.984375 30.6986 0.984375 26.0156C0.984375 11.6637 12.6478 0 27 0ZM27 39.0234C34.2841 39.0234 40.0078 33.1266 40.0078 26.0156C40.0078 18.8612 34.1544 13.0078 27 13.0078C19.8456 13.0078 13.9922 18.8612 13.9922 26.0156C13.9922 33.0832 19.6291 39.0234 27 39.0234Z" fill="#0079C2"/>
<path d="M27 0V13.0078C19.8456 13.0078 13.9922 18.8612 13.9922 26.0156C13.9922 33.0832 19.6291 39.0234 27 39.0234V73.9987C26.2601 74.0159 25.4993 73.6612 25.0777 72.9328L4.66992 39.327C2.24194 35.338 0.984375 30.6986 0.984375 26.0156C0.984375 11.6637 12.6478 0 27 0Z" fill="#2194FF"/>
</svg>
