<svg width="20" height="20" viewBox="0 0 20 20" fill="none" xmlns="http://www.w3.org/2000/svg">
<path d="M19.5133 11.3531C19.3087 11.302 19.1041 11.3531 18.9251 11.4811C18.2602 12.0439 17.4929 12.5044 16.649 12.8114C15.8562 13.1184 14.9866 13.2719 14.066 13.2719C11.9944 13.2719 10.1019 12.4277 8.74647 11.0717C7.39102 9.71579 6.54706 7.82261 6.54706 5.75034C6.54706 4.88049 6.70051 4.03623 6.95625 3.26873C7.23757 2.45005 7.64677 1.70813 8.18383 1.06854C8.414 0.787116 8.36285 0.377778 8.08153 0.147525C7.90251 0.0196075 7.69791 -0.0315598 7.49332 0.0196075C5.31949 0.60803 3.42698 1.91279 2.07153 3.65248C0.767234 5.36658 0 7.49002 0 9.79255C0 12.5812 1.12528 15.1139 2.96664 16.956C4.808 18.798 7.3143 19.9237 10.1275 19.9237C12.4803 19.9237 14.6542 19.105 16.3932 17.749C18.1579 16.3675 19.4366 14.3976 19.9737 12.1462C20.076 11.7881 19.8714 11.4299 19.5133 11.3531Z" fill="#F1F1F1"/>
</svg>
