<svg width="19" height="22" viewBox="0 0 19 22" fill="none" xmlns="http://www.w3.org/2000/svg">
<path d="M10.3057 9.34538C10.2731 9.29107 10.2271 9.24612 10.172 9.21489C10.117 9.18366 10.0548 9.16723 9.99145 9.16718H8.62158C8.55831 9.16719 8.49612 9.18357 8.44106 9.21473C8.38599 9.24589 8.33993 9.29077 8.30735 9.34501L7.64735 10.445C7.61315 10.502 7.59509 10.5672 7.59509 10.6337C7.59509 10.7001 7.61315 10.7653 7.64735 10.8223L8.30735 11.9223C8.33988 11.9766 8.38593 12.0216 8.44099 12.0528C8.49606 12.084 8.55827 12.1005 8.62158 12.1005H9.99145C10.0547 12.1005 10.1169 12.0841 10.172 12.053C10.227 12.0218 10.2731 11.9769 10.3057 11.9227L10.9657 10.8227C10.9999 10.7657 11.0179 10.7005 11.0179 10.634C11.0179 10.5676 10.9999 10.5024 10.9657 10.4454L10.3057 9.34538Z" fill="#2194FF"/>
<path d="M18.2103 14.9275L16.7436 14.0816L17.9232 13.6482C18.1001 13.5875 18.2485 13.4639 18.3403 13.3009C18.432 13.1379 18.4607 12.9469 18.4208 12.7642C18.3954 12.6647 18.3495 12.5717 18.2859 12.4911C18.2223 12.4106 18.1425 12.3442 18.0517 12.2964C17.9609 12.2486 17.861 12.2204 17.7586 12.2137C17.6562 12.2069 17.5535 12.2217 17.4572 12.2571L15.0914 13.1272L13.2339 12.0543L13.8532 11.0068C13.9199 10.8938 13.9551 10.765 13.9551 10.6339C13.9551 10.5027 13.9199 10.3739 13.8532 10.261L13.2343 9.21339L15.0914 8.14052L17.4572 9.01062C17.5582 9.04785 17.6661 9.06239 17.7734 9.0532C17.8806 9.04402 17.9845 9.01133 18.0777 8.95747C18.1709 8.90361 18.2511 8.8299 18.3126 8.74156C18.3741 8.65322 18.4154 8.55242 18.4336 8.44632C18.4586 8.27178 18.422 8.09397 18.33 7.94352C18.2381 7.79307 18.0965 7.67939 17.9298 7.62206L16.7447 7.18719L18.2114 6.33982C18.375 6.25013 18.4998 6.1034 18.5622 5.9276C18.6245 5.75179 18.62 5.55919 18.5495 5.38649C18.5076 5.29266 18.4465 5.20867 18.3701 5.13997C18.2937 5.07127 18.2037 5.01939 18.106 4.98769C18.0083 4.95598 17.905 4.94517 17.8028 4.95595C17.7006 4.96673 17.6019 4.99886 17.5129 5.05026L16.0096 5.91742L16.2233 4.68102C16.258 4.5054 16.2299 4.32316 16.144 4.16614C16.058 4.00911 15.9196 3.88728 15.7529 3.82192C15.6523 3.78631 15.5451 3.7731 15.4388 3.78321C15.3325 3.79332 15.2298 3.82651 15.1377 3.88046C15.0455 3.9344 14.9663 4.00781 14.9055 4.09555C14.8447 4.18328 14.8038 4.28324 14.7856 4.38842L14.3563 6.87222L12.4863 7.95206L11.9014 6.96206C11.8369 6.85228 11.7448 6.76122 11.6344 6.69783C11.5239 6.63443 11.3989 6.6009 11.2715 6.60052H10.0399V4.37742L11.9465 2.78902C12.0861 2.67764 12.1821 2.52071 12.2177 2.3457C12.2533 2.17068 12.2263 1.98872 12.1412 1.83166C12.0876 1.73939 12.0145 1.65995 11.927 1.59886C11.8395 1.53778 11.7397 1.49653 11.6346 1.47799C11.5295 1.45945 11.4217 1.46407 11.3185 1.49152C11.2154 1.51898 11.1195 1.56861 11.0376 1.63696L10.0399 2.46819V0.77309C10.0438 0.594578 9.98488 0.42036 9.87334 0.280931C9.7618 0.141502 9.60477 0.045746 9.42974 0.0104229C9.32448 -0.00751508 9.21658 -0.00225189 9.11357 0.0258447C9.01056 0.0539412 8.91493 0.104193 8.83335 0.173089C8.75178 0.241985 8.68624 0.327863 8.64131 0.424722C8.59637 0.52158 8.57313 0.627083 8.57321 0.733856V2.46819L7.60594 1.66152C7.4713 1.54436 7.29975 1.47829 7.1213 1.47487C6.94286 1.47145 6.7689 1.53091 6.62987 1.64282C6.54871 1.71222 6.48367 1.79851 6.43932 1.89565C6.39497 1.9928 6.37237 2.09846 6.37311 2.20525C6.37384 2.31203 6.39789 2.41737 6.44357 2.5139C6.48925 2.61043 6.55546 2.69581 6.63757 2.76409L8.57357 4.37742V6.60052H7.34157C7.21408 6.60053 7.08879 6.63378 6.97806 6.69699C6.86734 6.76019 6.77501 6.85118 6.71017 6.96096L6.12534 7.95096L4.25534 6.87112L3.83331 4.42876C3.80538 4.24395 3.71056 4.07584 3.56686 3.95634C3.42315 3.83683 3.24057 3.77426 3.05378 3.78049C2.9513 3.78745 2.85143 3.81587 2.76064 3.86389C2.66985 3.91191 2.59015 3.97847 2.52672 4.05925C2.46329 4.14004 2.41754 4.23324 2.39242 4.33284C2.36731 4.43243 2.3634 4.53619 2.38094 4.63739L2.60094 5.91632L1.13428 5.06859C0.981736 4.97582 0.801419 4.93968 0.624909 4.96649C0.448399 4.99331 0.286951 5.08137 0.168844 5.21526C0.100706 5.29742 0.0513273 5.39347 0.0241561 5.4967C-0.00301513 5.59993 -0.00732377 5.70784 0.0115312 5.8129C0.0303862 5.91797 0.0719503 6.01765 0.13332 6.10499C0.19469 6.19232 0.274387 6.26521 0.366844 6.31856L1.87018 7.18572L0.684377 7.62169C0.517505 7.67902 0.375835 7.79273 0.283749 7.94323C0.191662 8.09375 0.15492 8.27165 0.179844 8.44632C0.198013 8.55242 0.239315 8.65322 0.300819 8.74156C0.362323 8.8299 0.44252 8.90361 0.535717 8.95747C0.628914 9.01133 0.732825 9.04402 0.840074 9.0532C0.947322 9.06239 1.05528 9.04785 1.15628 9.01062L3.52164 8.14052L5.37917 9.21339L4.75988 10.261C4.69317 10.3739 4.65799 10.5027 4.65799 10.6339C4.65799 10.765 4.69317 10.8938 4.75988 11.0068L5.37881 12.0543L3.52164 13.1272L1.15628 12.2571C1.05995 12.2216 0.957242 12.2068 0.854808 12.2135C0.752374 12.2202 0.652492 12.2484 0.561627 12.2961C0.470762 12.3439 0.390938 12.4102 0.327319 12.4908C0.263701 12.5713 0.217706 12.6644 0.19231 12.7638C0.152404 12.9466 0.181038 13.1377 0.272771 13.3007C0.364504 13.4638 0.512942 13.5874 0.689877 13.6482L1.86834 14.0805L0.404977 14.9239C0.238935 15.0148 0.112566 15.1641 0.0503729 15.3429C-0.0118198 15.5217 -0.00540379 15.7172 0.068377 15.8915C0.111384 15.9836 0.17307 16.0658 0.24952 16.1328C0.32597 16.1998 0.415514 16.2501 0.512468 16.2807C0.609421 16.3112 0.711667 16.3213 0.812715 16.3102C0.913762 16.2991 1.0114 16.2672 1.09944 16.2164L2.60278 15.3492L2.38828 16.5907C2.36625 16.6981 2.36806 16.8091 2.39357 16.9157C2.41908 17.0223 2.46767 17.122 2.53593 17.2078C2.60418 17.2936 2.69042 17.3634 2.78857 17.4123C2.88673 17.4611 2.99441 17.4878 3.10401 17.4905C3.2767 17.4903 3.44377 17.4291 3.57577 17.3177C3.70778 17.2064 3.79625 17.052 3.82561 16.8819L4.25498 14.3981L6.12497 13.3182L6.70981 14.3082C6.77485 14.4178 6.86732 14.5085 6.97811 14.5715C7.08889 14.6344 7.21416 14.6674 7.34157 14.6672H8.57321V16.8903L6.66654 18.4805C6.52699 18.5918 6.43107 18.7486 6.3956 18.9236C6.36014 19.0985 6.38739 19.2803 6.47257 19.4372C6.5262 19.5294 6.59932 19.6089 6.68682 19.67C6.77432 19.731 6.8741 19.7723 6.97919 19.7908C7.08428 19.8094 7.19215 19.8047 7.29527 19.7773C7.3984 19.7498 7.49428 19.7002 7.57624 19.6319L8.57321 18.7995V20.4946C8.56925 20.6731 8.6282 20.8474 8.73974 20.9868C8.85128 21.1262 9.00831 21.222 9.18334 21.2573C9.2886 21.2752 9.3965 21.27 9.49951 21.2419C9.60252 21.2138 9.69815 21.1635 9.77973 21.0946C9.8613 21.0257 9.92684 20.9399 9.97177 20.843C10.0167 20.7461 10.0399 20.6406 10.0399 20.5339V18.7995L11.0372 19.6308C11.1209 19.7006 11.2191 19.7509 11.3246 19.778C11.4302 19.8051 11.5405 19.8084 11.6474 19.7875C11.7544 19.7666 11.8554 19.7222 11.943 19.6574C12.0307 19.5926 12.1028 19.5091 12.1541 19.413C12.232 19.258 12.2543 19.0809 12.2171 18.9115C12.18 18.7421 12.0858 18.5906 11.9502 18.4824L10.0399 16.8903V14.6672H11.2715C11.399 14.6672 11.5243 14.6339 11.635 14.5707C11.7457 14.5075 11.8381 14.4165 11.9029 14.3068L12.4877 13.3168L14.3577 14.3966L14.7871 16.8804C14.8165 17.0506 14.9049 17.2049 15.0369 17.3163C15.1689 17.4276 15.336 17.4888 15.5087 17.4891C15.6186 17.4857 15.7263 17.4583 15.8245 17.4089C15.9227 17.3595 16.0089 17.2893 16.0771 17.2031C16.1452 17.1169 16.1937 17.0168 16.2192 16.9099C16.2447 16.803 16.2464 16.6918 16.2244 16.5841L16.011 15.3514L17.5144 16.2186C17.6024 16.2694 17.7001 16.3015 17.8011 16.3126C17.9022 16.3237 18.0045 16.3137 18.1015 16.2832C18.1985 16.2527 18.2881 16.2023 18.3645 16.1353C18.441 16.0684 18.5028 15.9862 18.5458 15.8941C18.6196 15.72 18.6262 15.5248 18.5642 15.3462C18.5022 15.1676 18.3761 15.0184 18.2103 14.9275ZM11.5945 11.1996L10.9345 12.2996C10.8365 12.4622 10.6982 12.5968 10.533 12.6903C10.3678 12.7839 10.1813 12.8333 9.99147 12.8339H8.62161C8.43176 12.8333 8.24524 12.7839 8.08006 12.6903C7.91487 12.5968 7.77658 12.4622 7.67854 12.2996L7.01854 11.1996C6.91561 11.0289 6.86122 10.8332 6.86122 10.6339C6.86122 10.4345 6.91561 10.2389 7.01854 10.0681L7.67854 8.96809C7.77658 8.80552 7.91487 8.67095 8.08006 8.57737C8.24524 8.4838 8.43176 8.43437 8.62161 8.43386H9.99147C10.1813 8.43437 10.3678 8.4838 10.533 8.57737C10.6982 8.67095 10.8365 8.80552 10.9345 8.96809L11.5945 10.0681C11.6975 10.2389 11.7519 10.4345 11.7519 10.6339C11.7519 10.8332 11.6975 11.0289 11.5945 11.1996Z" fill="#2194FF"/>
</svg>
