<svg width="25" height="25" viewBox="0 0 25 25" fill="none" xmlns="http://www.w3.org/2000/svg">
<path d="M12.5 6.2384C9.04731 6.2384 6.2384 9.04786 6.2384 12.5006C6.2384 15.9533 9.04731 18.7628 12.5 18.7628C15.9522 18.7628 18.7617 15.9539 18.7617 12.5006C18.7617 9.0473 15.9522 6.2384 12.5 6.2384Z" fill="#2194FF"/>
<path d="M12.5 4.3977C11.8252 4.3977 11.2783 3.85075 11.2783 3.17648V1.22177C11.2783 0.546944 11.8252 0 12.5 0C13.1748 0 13.7218 0.546944 13.7218 1.22177V3.17648C13.7218 3.85075 13.1743 4.3977 12.5 4.3977Z" fill="#2194FF"/>
<path d="M12.5 20.6017C11.8252 20.6017 11.2783 21.1487 11.2783 21.8235V23.7777C11.2783 24.4531 11.8252 25 12.5 25C13.1748 25 13.7218 24.4531 13.7218 23.7777V21.8235C13.7218 21.1487 13.1743 20.6017 12.5 20.6017Z" fill="#2194FF"/>
<path d="M18.2285 6.77094C17.7519 6.29375 17.7519 5.52038 18.2285 5.04319L19.6108 3.66088C20.0875 3.18425 20.8614 3.18425 21.3386 3.66088C21.8158 4.13808 21.8158 4.91199 21.3386 5.38863L19.9563 6.77094C19.4796 7.24813 18.7063 7.24813 18.2285 6.77094Z" fill="#2194FF"/>
<path d="M6.7709 18.2296C6.29371 17.7519 5.52035 17.7519 5.04316 18.2296L3.66085 19.6114C3.18421 20.088 3.18366 20.8625 3.66085 21.3391C4.13804 21.8158 4.91196 21.8158 5.38859 21.3391L6.7709 19.9563C7.24809 19.4796 7.24809 18.7057 6.7709 18.2296Z" fill="#2194FF"/>
<path d="M20.6017 12.5C20.6017 11.8252 21.1487 11.2783 21.8235 11.2783H23.7782C24.4531 11.2783 25 11.8252 25 12.5C25 13.1748 24.4531 13.7212 23.7782 13.7212H21.8235C21.1487 13.7212 20.6017 13.1748 20.6017 12.5Z" fill="#2194FF"/>
<path d="M4.3977 12.5C4.3977 11.8252 3.85075 11.2783 3.17593 11.2783H1.22177C0.546944 11.2783 0 11.8252 0 12.5C0 13.1748 0.546944 13.7212 1.22177 13.7212H3.17648C3.85075 13.7212 4.3977 13.1748 4.3977 12.5Z" fill="#2194FF"/>
<path d="M18.2285 18.2296C18.7057 17.753 19.4796 17.753 19.9562 18.2296L21.3386 19.6119C21.8157 20.088 21.8157 20.8625 21.3386 21.3391C20.8614 21.8157 20.088 21.8157 19.6108 21.3391L18.2285 19.9568C17.7513 19.4796 17.7513 18.7062 18.2285 18.2296Z" fill="#2194FF"/>
<path d="M6.77093 6.77092C7.24812 6.29373 7.24812 5.52037 6.77093 5.04318L5.38862 3.66142C4.91143 3.18423 4.13806 3.18423 3.66087 3.66142C3.18368 4.13806 3.18368 4.91198 3.66087 5.38861L5.04318 6.77092C5.52037 7.24867 6.29373 7.24867 6.77093 6.77092Z" fill="#2194FF"/>
</svg>
