<svg xmlns="http://www.w3.org/2000/svg" version="1.1" xmlns:xlink="http://www.w3.org/1999/xlink" xmlns:svgjs="http://svgjs.com/svgjs" width="100" height="101"><svg width="100" height="101" viewBox="0 0 100 101" fill="none" xmlns="http://www.w3.org/2000/svg"><path d="M55.0097 100.759V59.3947H72.9646V49.0537H26.5625V59.3947H44.6652V100.759H55.0097Z" fill="#2194FF"/><path fill-rule="evenodd" clip-rule="evenodd" d="M54.0717 8.516C52.5655 9.75759 52.1645 11.9979 52.8687 15.2369C52.7024 13.3444 53.5044 11.8328 55.2747 10.7021C56.4521 9.64088 56.8537 7.60931 56.4796 4.60733C56.1654 6.40073 55.3628 7.70656 54.0717 8.52486V8.516ZM45.1022 37.7375C43.5572 36.1596 42.6689 34.0883 42.6066 31.9189C42.5444 29.7495 43.3126 27.6339 44.7648 25.9761C46.1989 24.4432 46.4434 22.7654 45.4983 20.9425C46.9092 21.6959 47.5957 23.5595 47.5578 26.5332C49.8672 21.9253 49.7737 18.0738 47.2772 14.9786C48.2483 15.2261 49.2006 15.5382 50.127 15.9125C49.8263 14.224 49.207 12.7896 48.2693 11.6094C46.4085 8.09683 46.5216 4.22706 48.6086 0C47.7173 2.73904 48.1684 5.33896 49.962 7.79974C51.7078 10.2959 52.1205 13.1605 51.1999 16.3936C56.7749 19.1326 58.4456 24.03 56.2119 31.0857C57.9981 29.9066 58.654 27.8196 58.1796 24.8247C60.582 29.198 60.7752 32.7688 58.7591 35.5374C60.2767 33.7672 61.1275 31.5533 61.1725 29.2569C61.2434 26.2478 60.6285 23.8537 59.3277 22.0745C57.5194 19.9521 56.4411 18.1746 56.0927 16.742C55.3029 11.4856 56.5573 7.72483 59.8558 5.45978C56.9216 8.76125 57.105 13.1687 60.406 18.6822C59.8631 15.587 60.648 13.6899 62.7607 12.9907C60.6334 13.8314 60.8388 18.0018 63.3769 25.5021C64.0751 28.5834 63.5742 31.8047 61.9695 34.5529C60.3648 37.3012 57.7683 39.3844 54.6742 40.406C51.5802 41.4277 48.2046 41.3165 45.1901 40.0936C42.1756 38.8707 39.7325 36.6214 38.326 33.774C36.3527 29.2581 36.9029 23.8165 39.9765 17.4494C42.0182 14.1067 43.0715 10.1768 43.1363 5.65966C42.7829 3.47244 42.039 1.71676 40.9044 0.392634C44.4438 3.3616 46.3352 6.61062 46.5785 10.1397C46.8315 13.3409 45.9916 16.1825 44.0587 18.6645C41.4338 22.1829 40.155 26.2461 40.2222 30.854C40.4858 32.2674 41.057 33.6108 41.8982 34.7958C42.7393 35.9808 43.8313 36.9804 45.1022 37.7287V37.7375ZM53.6829 38.7987C56.2394 36.6693 56.4038 33.9904 54.1763 30.762C52.3521 28.2399 51.6877 25.9342 52.1828 23.8449C48.9405 25.5304 49.023 30.6524 49.9106 34.7379C48.9717 34.0446 47.279 30.6364 47.3432 28.9863C44.7648 32.928 44.9677 36.2342 47.9521 38.9049C49.8345 39.3765 51.8152 39.3397 53.6774 38.7987H53.6829Z" fill="#2194FF"/></svg><style>@media (prefers-color-scheme: light) { :root { filter: none; } }</style></svg>